<?xml version="1.0" encoding="utf-8"?>
<!-- Generator: Adobe Illustrator 22.1.0, SVG Export Plug-In . SVG Version: 6.00 Build 0)  -->
<svg version="1.1" id="Layer_1" xmlns="http://www.w3.org/2000/svg" xmlns:xlink="http://www.w3.org/1999/xlink" x="0px" y="0px"
	 viewBox="0 0 1366 768" style="enable-background:new 0 0 1366 768;" xml:space="preserve">
<style type="text/css">
	.st0{opacity:0.8;fill:#E4B5BF;enable-background:new    ;}
	.st1{fill:#FFFFFF;}
	.st2{fill:none;stroke:#000000;stroke-miterlimit:10;}
	.st3{fill:#FFFFFF;stroke:#000000;stroke-miterlimit:10;}
	.st4{fill:none;}
	.st5{font-family:'ChalkboardSE-Regular';}
	.st6{font-size:42px;}
	.st7{fill:#FFB63F;}
</style>
<rect class="st0" width="1366" height="768"/>
<g>
	<rect x="260.5" y="330.5" class="st1" width="815" height="92"/>
	<path d="M1075,331v91H261v-91H1075 M1076,330H260v93h816V330L1076,330z"/>
</g>
<line class="st2" x1="304.5" y1="362" x2="304.5" y2="391"/>
<g>
	<rect x="329.5" y="551.5" class="st3" width="243" height="75"/>
	<rect x="350.9" y="569.2" class="st4" width="200.6" height="40.1"/>
	<text transform="matrix(1 0 0 1 350.9351 598.8115)" class="st5 st6">RANDOM</text>
</g>
<g>
	<rect x="701.5" y="551.5" class="st3" width="243" height="75"/>
	<rect x="724.4" y="571.7" class="st4" width="200.6" height="31.2"/>
	<text transform="matrix(1 0 0 1 724.3955 601.2686)" class="st5 st6">PREMIUM</text>
</g>
<g>
	<g>
		<g>
			<path class="st7" d="M247.7,206.3c35.6,0,71.2,1.1,106.7,3.3c1.6,0.1,1.6-2.4,0-2.5c-35.5-2.2-71.1-3.3-106.7-3.3
				C246.1,203.8,246.1,206.3,247.7,206.3L247.7,206.3z"/>
		</g>
	</g>
	<g>
		<g>
			<path class="st7" d="M247.1,203.2c-2.4-12.9,16.1-20.8,25.6-24.5c11.3-4.4,23.4-6.5,35.5-6.4c11.8,0.1,25.1,1.8,35.1,8.5
				c8.8,5.9,12.3,17.6,11.8,27.8c-0.1,1.6,2.4,1.6,2.5,0c0.5-10-2.8-22.2-11-28.5c-11-8.5-26.7-10.4-40.2-10.3
				c-14.1,0.1-28.3,3.2-41,9.3c-9.5,4.5-23.2,12.3-20.8,24.8C245,205.4,247.4,204.7,247.1,203.2L247.1,203.2z"/>
		</g>
	</g>
	<g>
		<g>
			<path class="st7" d="M245.8,205.2c-4,4.9-1,11.6,4.4,14c4.5,2,9.8,1.5,14.6,1.4c6.6-0.2,13.3-0.4,19.9-0.6
				c26.2-0.7,52.4-1.5,78.5-2.2c0.6,0,1.1-0.4,1.2-0.9c1.8-6.6-4.8-8.1-9.9-9.4c-1.6-0.4-2.2,2-0.7,2.4c1.6,0.4,3.7,0.7,5.2,1.5
				c1,0.6,3.5,2.4,2.1,4c-0.4,0.4-3.4,0.1-4,0.1c-5.6,0.2-11.3,0.3-16.9,0.5c-10.9,0.3-21.9,0.6-32.8,0.9
				c-10.6,0.3-21.2,0.6-31.8,0.9c-5.5,0.2-10.9,0.5-16.4,0.4c-2.8,0-5.7-0.1-8.3-1.4c-3.4-1.7-6.5-6.1-3.5-9.8
				C248.6,205.7,246.9,203.9,245.8,205.2L245.8,205.2z"/>
		</g>
	</g>
	<g>
		<g>
			<path class="st7" d="M247,217.2c-4.8-0.9-11.6,1.5-10,7.6c1.1,4.3,6.9,4.8,8.9,0.9c-0.8-0.1-1.5-0.2-2.3-0.3c0.4,3,1.4,7,4.8,7.8
				c3.5,0.9,5.9-2.2,8.7-3.6c2.5-1.3,0.6-0.3,1.5,1.1c0.7,1.1,1.3,1.9,2.6,2.5c4.5,2.1,7.3-2.8,11.3-3.8c-0.5-0.4-1.1-0.8-1.6-1.2
				c0.2,4.7,4.8,7.4,9,5.4c0.5-0.2,0.7-0.9,0.6-1.4c2.4-1.6,4.2-1.6,5.5,0.2c0.7,0.7,1.4,1.4,2.1,2.1c1,0.8,2.2,1.5,3.4,1.7
				c1.7,0.2,3.1-0.3,4.4-1.4c2-1.8,3.1-6.6,6.7-4.5c2,1.2,2.2,3.3,5.1,3.2c1.9-0.1,3.6-1.4,5.1-2.3c2.1-1.4,3.4-2.8,5.8-0.3
				c0.6,0.6,0.8,1.6,1.4,2.2c1.6,1.7,3.5,2,5.7,1.2c3.9-1.4,5.9-7.2,10.2-2.4c1.3,1.5,1.3,2.6,3.6,2.9c2.2,0.3,4.3-1.1,5.8-2.5
				c0.9-0.8,1.6-2.2,2.7-2.8c4.4-2.7,6.1,1,9.1,2.4c1.5,0.7,3.2,1.1,4.8,0.5c3.2-1.2,1.9-4.6,5-5.8c1.6-0.6,2.8,0,4.1-1.7
				c3.3-4.3-1.5-8.6-4.9-10.7c-1.4-0.8-2.6,1.3-1.3,2.2c1.1,0.6,2.2,1.4,3.1,2.2c1.1,4.1,0.3,6-2.2,5.4c-0.5,0.2-1.2,0.1-1.7,0.5
				c-2.4,1.5-0.7,5.9-4.8,5.5c-2.7-0.2-4.7-3.6-7.4-4.1c-2.2-0.4-3.9,0.4-5.5,1.8c-1,0.8-1.7,2.2-2.7,2.8c-7.5,4.4-4.4-0.4-6.5-2
				c-1.2-0.9-1.9-1.5-3.5-1.4c-3.6,0.1-4.6,3.1-7.5,4.3c-5.1,2.1-4.6-3-7.9-4.2c-1.3-0.5-2.6-0.2-3.8,0.3c-2.8,1.2-4.4,3.9-7.5,2.8
				c-3.4-1.3-5-5.6-8.8-2c-3.2,3.1-3,7.9-9.2,3.4c-1.9-1.4-3.1-3.7-5.7-4.1c-1.5-0.2-3.1,0.3-4.2,1.4c-0.4,0.4-0.5,1.1-0.9,1.4
				c-0.1,0.4-0.2,0.8-0.2,1.3c0.4,2.2-1.1,1.1-4.3-3.4c0-0.8-0.8-1.4-1.6-1.2c-1.3,0.3-2.3,0.7-3.4,1.4c-0.6,0.4-1.2,0.8-1.7,1.2
				c-1.6,1.5-3.4,1.4-5.5-0.5c0.2-0.5,0.2-1.2-0.2-1.5c-1.6-1.3-2.9-1.3-4.8-0.5c-1.4,0.6-2.5,2-3.9,2.6c-1.3,0.5-4.2,0.3-5.3-0.8
				c-0.7-0.7-0.9-3.2-1.1-4.3c-0.1-1.1-1.8-1.2-2.3-0.3c-2.7-4.6-1.8-6.2,2.6-4.9C247.9,219.9,248.6,217.5,247,217.2L247,217.2z"/>
		</g>
	</g>
	<g>
		<g>
			<path class="st7" d="M248.9,231.8c-4.3,7.3,3.4,13.7,10.3,14c6.7,0.3,13.5-1.6,20.1-2.1c7.4-0.6,14.8-0.7,22.2-0.3
				c13.6,0.8,27.4,4.7,41.1,3.4c8.6-0.8,17.8-6.1,16-16c-0.3-1.6-2.7-0.9-2.4,0.7c3.9,21.4-42.6,10.2-52.8,9.5
				c-9.3-0.6-18.7-0.5-28,0.5c-4.3,0.4-8.5,1.3-12.8,1.6c-5.2,0.4-16.2-2.5-11.6-10.2C251.9,231.7,249.7,230.5,248.9,231.8
				L248.9,231.8z"/>
		</g>
	</g>
	<g>
		<g>
			<path class="st7" d="M266.3,190.7c0.6,0.2,1.2,0.5,1.7,0.7c0.6,0.3,1.3,0.2,1.7-0.4c0.3-0.5,0.2-1.4-0.4-1.7
				c-0.6-0.2-1.2-0.5-1.7-0.7c-0.6-0.3-1.3-0.2-1.7,0.4C265.5,189.5,265.7,190.4,266.3,190.7L266.3,190.7z"/>
		</g>
	</g>
	<g>
		<g>
			<path class="st7" d="M281.1,184.4c0,0.6,0,1.2,0,1.8c0,1.6,2.5,1.6,2.5,0c0-0.6,0-1.2,0-1.8C283.6,182.8,281.1,182.8,281.1,184.4
				L281.1,184.4z"/>
		</g>
	</g>
	<g>
		<g>
			<path class="st7" d="M285.8,195.2c1.3,0,2.6,0,3.9,0c1.6,0,1.6-2.5,0-2.5c-1.3,0-2.6,0-3.9,0
				C284.2,192.7,284.2,195.2,285.8,195.2L285.8,195.2z"/>
		</g>
	</g>
	<g>
		<g>
			<path class="st7" d="M305.5,183.5c0.8,0.1,1.6,0.2,2.5,0.3c0.7,0.1,1.3-0.2,1.5-0.9c0.2-0.6-0.2-1.4-0.9-1.5
				c-0.8-0.1-1.6-0.2-2.5-0.3c-0.7-0.1-1.3,0.2-1.5,0.9C304.5,182.5,304.8,183.4,305.5,183.5L305.5,183.5z"/>
		</g>
	</g>
	<g>
		<g>
			<path class="st7" d="M307.2,194.1c1.2,0,2.3,0,3.5,0c1.6,0,1.6-2.5,0-2.5c-1.2,0-2.3,0-3.5,0
				C305.6,191.6,305.6,194.1,307.2,194.1L307.2,194.1z"/>
		</g>
	</g>
	<g>
		<g>
			<path class="st7" d="M329.7,187.1c1.4,0,2.8,0,4.2,0c1.6,0,1.6-2.5,0-2.5c-1.4,0-2.8,0-4.2,0C328,184.6,328,187.1,329.7,187.1
				L329.7,187.1z"/>
		</g>
	</g>
	<g>
		<g>
			<path class="st7" d="M331.1,197.5c0.9,0.4,1.9,0.7,2.8,1.1c0.6,0.2,1.4-0.3,1.5-0.9c0.2-0.7-0.2-1.3-0.9-1.5
				c-0.9-0.4-1.9-0.7-2.8-1.1c-0.6-0.2-1.4,0.3-1.5,0.9C330,196.7,330.5,197.3,331.1,197.5L331.1,197.5z"/>
		</g>
	</g>
</g>
<g>
	<g>
		<g>
			<path class="st7" d="M1210.9,171.1c-7.3,14.3-13.2,29.2-17.4,44.7c-2.1,7.8-3.8,15.8-5.1,23.8c-1.2,7.4-2.8,15.5-2.4,23
				c0.7,14.4,15.9,7.7,23.5,3.5c13.5-7.6,26.1-16.6,38.9-25.1c14.8-9.8,30-19,46.9-24.8c1.5-0.5,0.9-2.9-0.7-2.4
				c-32.5,11-58.2,34.6-87.8,50.9c-3.7,2-7.9,4.6-12.3,4.5c-7.9-0.2-5.9-10-5.5-15c0.9-9.5,2.4-18.9,4.5-28.1
				c4.2-18.7,10.8-36.7,19.6-53.7C1213.7,170.9,1211.6,169.7,1210.9,171.1L1210.9,171.1z"/>
		</g>
	</g>
	<g>
		<g>
			<path class="st7" d="M1212.9,170.3c-2.8-7.6,5.5-10.9,11.5-10.9c4.6,0,9.3,0.9,13.6,2.2c8.1,2.3,15.5,6.3,22.4,11.1
				c7,4.9,13.3,10.7,19.2,16.9c6.5,6.8,13,14,15.5,23.2c0.3-0.5,0.6-1,0.9-1.5c-7.7,2.7-17.3-6-23.4-10c-7.2-4.7-14.3-9.5-21.3-14.5
				c-10.6-7.6-22.8-20.4-37.1-18.5c-1.6,0.2-1.6,2.7,0,2.5c8.8-1.2,16.1,3.7,22.9,8.7c6.9,5,13.7,10.1,20.7,14.9
				c7.1,4.9,14.3,9.6,21.6,14.2c5.2,3.3,10.9,7.3,17.2,5.1c0.6-0.2,1.1-0.8,0.9-1.5c-2.8-10.4-10.4-18.6-17.8-26.1
				c-7.8-7.9-16.4-15.2-26.2-20.6c-8.8-4.9-19-8.6-29.1-8.6c-7.6,0-17.2,5.1-13.9,14.1C1211,172.4,1213.4,171.8,1212.9,170.3
				L1212.9,170.3z"/>
		</g>
	</g>
	<g>
		<g>
			<path class="st7" d="M1213.1,186.9c-4.5,7.7,4.1,16.7,11.8,11.7c1.7-1.1,2.8-2.8,3.4-4.7c0.5-1.8,0.9-5.3,0-7.1
				c-0.9-1.7-4.5-2.7-6.2-3c-2.5-0.4-5-0.2-7.4,0.7c-1.5,0.6-0.8,3,0.7,2.4c3.9-1.4,7.9-0.9,11.3,1.6c-0.2-0.4-0.4-0.7-0.6-1.1
				c0.6,4.6-0.3,10.4-6.2,10.1c-4.7-0.2-6.7-5.6-4.5-9.3C1216.1,186.7,1213.9,185.5,1213.1,186.9L1213.1,186.9z"/>
		</g>
	</g>
	<g>
		<g>
			<path class="st7" d="M1235.5,212.7c3.8,0,7.6,0,11.4,0c1.6,0,1.6-2.5,0-2.5c-3.8,0-7.6,0-11.4,0
				C1233.9,210.2,1233.9,212.7,1235.5,212.7L1235.5,212.7z"/>
		</g>
	</g>
	<g>
		<g>
			<path class="st7" d="M1261.6,215.6c1.2,1.8,2.9,3.6,5.1,3.8c1.9,0.2,4-0.8,4.7-2.7c1.8-4.5-4.3-5.7-7.4-5.3
				c-0.7,0.1-1.2,0.5-1.2,1.2s-0.1,1.4-0.1,2c-0.1,1.6,2.4,1.6,2.5,0c0-0.7,0.1-1.4,0.1-2c-0.4,0.4-0.8,0.8-1.2,1.2
				c1.2-0.2,5-0.5,5.1,1.4c0.1,1.3-1.6,1.7-2.5,1.5c-1.3-0.3-2.2-1.5-2.9-2.5C1262.8,213,1260.7,214.2,1261.6,215.6L1261.6,215.6z"
				/>
		</g>
	</g>
	<g>
		<g>
			<path class="st7" d="M1195.5,246.8c-1,4.7,0,10.3,4.9,12.4c4.5,1.9,9.1-1.2,10.3-5.6c1.1-3.9-0.4-8.4-4.3-10
				c-3.6-1.5-8-0.1-9.9,3.3c-0.8,1.4,1.4,2.7,2.2,1.3c1.2-2.2,4-3.2,6.4-2.4c2.7,0.9,3.9,3.7,3.4,6.4c-0.5,3.1-3.4,6-6.7,4.9
				c-4-1.3-4.6-6.1-3.8-9.6C1198.3,245.9,1195.8,245.3,1195.5,246.8L1195.5,246.8z"/>
		</g>
	</g>
	<g>
		<g>
			<path class="st7" d="M1207.5,206.6c-0.1,4.1-0.2,8.2-0.3,12.4c0,1.6,2.5,1.6,2.5,0c0.1-4.1,0.2-8.2,0.3-12.4
				C1210,204.9,1207.5,204.9,1207.5,206.6L1207.5,206.6z"/>
		</g>
	</g>
	<g>
		<g>
			<path class="st7" d="M1226.8,219.3c-6,1.5-10.2,6.8-9.4,13.1c0.8,7,6.9,10.2,13.5,9.5c5.9-0.6,9.5-5.3,8.7-11.2
				c-1.2-8-7.2-11-14.7-11.1c-1.6,0-1.6,2.5,0,2.5c5.4,0.1,10.3,1.5,11.9,7.3c1.5,5.4-1.3,9.8-7.1,10.1c-11.7,0.5-13-15-2.1-17.7
				C1229,221.3,1228.4,218.9,1226.8,219.3L1226.8,219.3z"/>
		</g>
	</g>
	<g>
		<g>
			<path class="st7" d="M1212.3,241.8c1-0.2,2,0.2,2.7,0.8c1.2,1.1,3-0.7,1.8-1.8c-1.4-1.3-3.2-1.8-5.1-1.5c-0.7,0.1-1,0.9-0.9,1.5
				C1210.9,241.6,1211.6,241.9,1212.3,241.8L1212.3,241.8z"/>
		</g>
	</g>
	<g>
		<g>
			<path class="st7" d="M1213.7,170.3c1.5-3.2,3.7-5.5,6.7-7.2c-0.6-0.4-1.3-0.7-1.9-1.1c0.1,1.2,0.3,2.3,0.4,3.5
				c0.1,1,1,1.5,1.9,1.1c3.9-1.8,7.5-4.1,10.9-6.8c-0.7-0.4-1.4-0.8-2.1-1.2c-0.8,3.8-1.6,7.7-2.5,11.5c-0.2,1.1,1.2,2.2,2.1,1.2
				c2.5-2.7,5.1-5.2,8.1-7.3c-0.6-0.5-1.2-0.9-1.8-1.4c-0.8,2.6-1.6,5.2-2.4,7.8c-0.3,1.1,0.9,1.9,1.8,1.4c3.1-1.5,6.2-3.1,9.3-4.6
				c-0.6-0.4-1.3-0.7-1.9-1.1c-0.4,3.1-1.2,6-2.3,8.9c-0.4,1,1,2,1.8,1.4c3.3-2.3,6.7-4.2,10.4-5.7c-0.5-0.5-1-1-1.5-1.5
				c-1.6,4-3.3,8-4.9,12c-0.5,1.2,1.3,2.1,2.1,1.2c3.2-3.3,6.6-5.2,11.1-6c-0.4-0.7-0.8-1.4-1.2-2.1c-3,2.7-5,5.8-6.4,9.6
				c-0.5,1.3,1.2,1.9,2.1,1.2c3.4-2.8,6.8-5.4,11.4-5.3c-0.4-0.6-0.7-1.3-1.1-1.9c-1.9,3.4-3.8,6.8-5.6,10.2c-0.6,1,0.6,2.5,1.7,1.7
				c3.3-2.3,6.8-3.6,10.8-4.2c-0.4-0.7-0.8-1.4-1.2-2.1c-2.8,2.4-5,5-6.9,8.2c-0.7,1.1,0.6,2.3,1.7,1.7c3.3-1.9,6.4-2.9,10.2-3.3
				c-0.4-0.6-0.7-1.3-1.1-1.9c-1.7,2.6-2.9,5.2-3.7,8.2c-0.3,1.1,0.9,1.9,1.8,1.4c2.7-1.3,5.3-2.7,8-4c-0.6-0.6-1.1-1.1-1.7-1.7
				c-1.5,2.5-2.8,5-3.7,7.7c-0.3,0.9,0.7,1.9,1.5,1.5c2.5-1,5-1.7,7.6-2.2c-0.5-0.6-0.9-1.2-1.4-1.8c-0.8,1.7-1.5,3.3-2.3,5
				c-0.5,1.1,0.3,2,1.4,1.8c1.9-0.3,3.4-0.7,5.3-1.4c-0.5-0.5-1-1-1.5-1.5c-0.5,2.2-1.1,4.4-1.6,6.6c-0.2,0.9,0.6,1.8,1.5,1.5
				c2.1-0.6,4.2-1.2,6.4-1.9c-0.5-0.3-1-0.6-1.5-0.9c0.2,1.3,0.4,2.7,0.6,4c0.2,1.6,2.6,0.9,2.4-0.7c-0.2-1.3-0.4-2.7-0.6-4
				c-0.1-0.7-1-1-1.5-0.9c-2.1,0.6-4.2,1.2-6.4,1.9c0.5,0.5,1,1,1.5,1.5c0.5-2.2,1.1-4.4,1.6-6.6c0.2-0.8-0.6-1.9-1.5-1.5
				c-1.8,0.7-3.3,1.1-5.3,1.4c0.5,0.6,0.9,1.2,1.4,1.8c0.8-1.7,1.5-3.3,2.3-5c0.5-1-0.3-2.1-1.4-1.8c-2.6,0.5-5.1,1.3-7.6,2.2
				c0.5,0.5,1,1,1.5,1.5c0.9-2.6,2.1-4.8,3.5-7.1c0.7-1.1-0.7-2.2-1.7-1.7c-2.7,1.3-5.3,2.7-8,4c0.6,0.5,1.2,0.9,1.8,1.4
				c0.7-2.8,1.9-5.2,3.5-7.6c0.5-0.7-0.1-2-1.1-1.9c-4.1,0.4-7.8,1.6-11.4,3.6c0.6,0.6,1.1,1.1,1.7,1.7c1.8-3,3.9-5.4,6.5-7.7
				c1.1-0.9-0.1-2.2-1.2-2.1c-4.2,0.6-7.8,2-11.4,4.5c0.6,0.6,1.1,1.1,1.7,1.7c1.9-3.4,3.8-6.8,5.6-10.2c0.5-0.8-0.1-1.9-1.1-1.9
				c-5.3,0-9.2,2.8-13.2,6.1c0.7,0.4,1.4,0.8,2.1,1.2c1.3-3.3,3.1-6.1,5.8-8.5c1-0.9-0.1-2.3-1.2-2.1c-4.8,0.9-8.8,3.1-12.2,6.6
				c0.7,0.4,1.4,0.8,2.1,1.2c1.6-4,3.3-8,4.9-12c0.3-0.8-0.7-1.9-1.5-1.5c-3.9,1.6-7.5,3.5-11,6c0.6,0.5,1.2,0.9,1.8,1.4
				c1.2-3.1,2-6.2,2.4-9.6c0.1-1-1.1-1.4-1.9-1.1c-3.1,1.5-6.2,3.1-9.3,4.6c0.6,0.5,1.2,0.9,1.8,1.4c0.8-2.6,1.6-5.2,2.4-7.8
				c0.3-1-0.9-2.1-1.8-1.4c-3.1,2.3-6,4.8-8.6,7.7c0.7,0.4,1.4,0.8,2.1,1.2c0.8-3.8,1.6-7.7,2.5-11.5c0.3-1.3-1.1-2-2.1-1.2
				c-3.2,2.6-6.6,4.7-10.4,6.4c0.6,0.4,1.3,0.7,1.9,1.1c-0.1-1.2-0.3-2.3-0.4-3.5c-0.1-0.9-1-1.6-1.9-1.1c-3.5,1.9-5.9,4.5-7.6,8.1
				C1210.8,170.5,1213,171.8,1213.7,170.3L1213.7,170.3z"/>
		</g>
	</g>
</g>
<g>
	<g>
		<g>
			<path class="st7" d="M511.1,209.4c-4.7-10.7-8.7-24.2-0.6-34.4c6.9-8.7,20-12.3,30.7-12.7c11.2-0.4,23.7,2.3,28.8,13.3
				c2.6,5.5,5.2,11.6,5.4,17.8c0.2,7-3.7,11.6-8.5,16.2c-1.2,1.1,0.6,2.9,1.8,1.8c4.6-4.4,8.6-8.9,9.2-15.5
				c0.5-6.4-1.9-12.8-4.4-18.6c-2.6-6-5.3-10.7-11.5-13.5c-5.9-2.8-12.6-3.9-19.2-3.9c-11.9,0-26.7,4-34.4,13.8
				c-8.7,11.1-4.6,25.5,0.5,37.2C509.6,212.1,511.8,210.9,511.1,209.4L511.1,209.4z"/>
		</g>
	</g>
	<g>
		<g>
			<path class="st7" d="M509.1,210.6c1.4,4.9,5.5,12.8,11.8,11.8c2.9-0.5,4.3-3.7,6.9-4.3c4.9-1.2,5.6,3.9,9.3,5.2
				c2.2,0.8,4.4-0.2,6.1-1.7c4.2-4,5.9-11,13.3-8.8c2.7,0.8,6.2,3.6,9.2,2.6c2.6-0.9,4.1-4.1,4.9-6.5c0.5-1.5-1.9-2.2-2.4-0.7
				c-2.2,6.2-5.7,4-10.3,2.4c-2.5-0.9-5-1.3-7.6-0.3c-2.2,0.8-3.8,2.5-5.2,4.3c-2.5,3.3-4.9,8.1-9.7,4.3c-2.7-2.1-4.1-4.9-8.1-3.4
				c-2.1,0.8-3.4,3-5.4,3.8c-6,2.4-9.3-5-10.6-9.3C511,208.4,508.6,209.1,509.1,210.6L509.1,210.6z"/>
		</g>
	</g>
	<g>
		<g>
			<path class="st7" d="M518.1,221.1c0.3,14.2,4,27.8,8.9,41c2.2,6.1,4.6,12.3,7.2,18.3c1.3,2.9,3.8,8.4,7.6,8.5
				c4.1,0.1,5-6,5.8-8.7c2.2-7,4.2-14.1,6.1-21.2c4-14.8,7.3-29.8,10.2-44.8c0.3-1.6-2.1-2.2-2.4-0.7c-2.2,11.6-4.7,23.1-7.6,34.6
				c-1.4,5.6-2.9,11.1-4.4,16.7c-1.5,5.5-2.5,12.4-5.2,17.5c-0.2,0.6-0.4,1.2-0.6,1.8c-1.3,0.3-2.6,0.6-3.8,0.9
				c-1.1-0.5-2.2-2.9-2.7-3.9c-1.3-2.7-2.3-5.5-3.4-8.3c-2.1-5.2-4.1-10.5-6-15.9c-4-11.6-6.9-23.6-7.2-35.9
				C520.6,219.5,518.1,219.5,518.1,221.1L518.1,221.1z"/>
		</g>
	</g>
	<g>
		<g>
			<path class="st7" d="M520.9,222c7.8,11.1,18.8,17.5,30.3,24.2c0.7,0.4,1.3-0.7,0.6-1.1c-11.3-6.6-22.2-12.8-29.9-23.8
				C521.5,220.7,520.5,221.3,520.9,222L520.9,222z"/>
		</g>
	</g>
	<g>
		<g>
			<path class="st7" d="M521,233.1c4.1,5.1,8.5,9.8,13.2,14.3c4,3.9,7.9,8,13,10.5c0.7,0.4,1.4-0.7,0.6-1.1
				c-5.4-2.7-9.7-7.3-14-11.5c-4.2-4.1-8.2-8.4-11.9-13C521.4,231.6,520.5,232.5,521,233.1L521,233.1z"/>
		</g>
	</g>
	<g>
		<g>
			<path class="st7" d="M523.5,248.8c4.3,2.9,7.8,6.9,11.9,10.2c3.7,2.9,7.6,5.5,11.6,7.8c0.7,0.4,1.3-0.7,0.6-1.1
				c-4.9-2.8-9.6-6-13.9-9.7c-3.2-2.8-6.1-5.9-9.7-8.3C523.5,247.3,522.9,248.4,523.5,248.8L523.5,248.8z"/>
		</g>
	</g>
	<g>
		<g>
			<path class="st7" d="M527.6,261.4c7.2,4.7,13.1,11.2,20.8,15.2c0.7,0.4,1.3-0.7,0.6-1.1c-7.7-4-13.5-10.6-20.8-15.2
				C527.6,259.9,527,261,527.6,261.4L527.6,261.4z"/>
		</g>
	</g>
	<g>
		<g>
			<path class="st7" d="M531,273.5c5.5,0.5,8.9,5.6,13.9,7.4c0.8,0.3,1.1-0.9,0.3-1.2c-5.2-1.9-8.4-6.9-14.2-7.4
				C530.2,272.2,530.2,273.4,531,273.5L531,273.5z"/>
		</g>
	</g>
	<g>
		<g>
			<path class="st7" d="M530.7,220.1c8.1,7.7,18.8,12.1,26.5,20.2c0.6,0.6,1.4-0.3,0.9-0.9c-7.7-8.1-18.4-12.5-26.5-20.2
				C531,218.7,530.1,219.6,530.7,220.1L530.7,220.1z"/>
		</g>
	</g>
	<g>
		<g>
			<path class="st7" d="M543.9,221.2c4,3.6,8.8,6,14.1,7c0.8,0.2,1.1-1,0.3-1.2c-5.1-1-9.7-3.2-13.5-6.7
				C544.2,219.8,543.3,220.7,543.9,221.2L543.9,221.2z"/>
		</g>
	</g>
	<g>
		<g>
			<path class="st7" d="M550.7,216c3.1,1.1,6,2.8,8.4,5.1c0.6,0.6,1.5-0.3,0.9-0.9c-2.6-2.4-5.6-4.2-8.9-5.4
				C550.3,214.5,550,215.7,550.7,216L550.7,216z"/>
		</g>
	</g>
	<g>
		<g>
			<path class="st7" d="M524.1,233.6c2.9-4.1,6.4-7.5,10.5-10.3c0.7-0.5,0-1.5-0.6-1.1c-4.3,2.9-8,6.5-11,10.8
				C522.6,233.7,523.7,234.3,524.1,233.6L524.1,233.6z"/>
		</g>
	</g>
	<g>
		<g>
			<path class="st7" d="M525.7,243.9c5.3-5.5,13-7.6,18.9-12.4c5.6-4.6,10-10.5,14.4-16.2c0.5-0.6-0.6-1.3-1.1-0.6
				c-4.9,6.5-10,13.1-16.7,17.9c-5.3,3.8-11.7,5.7-16.3,10.5C524.3,243.6,525.2,244.5,525.7,243.9L525.7,243.9z"/>
		</g>
	</g>
	<g>
		<g>
			<path class="st7" d="M528.2,253.5c9.3-9.5,20.6-16.8,31.3-24.5c0.6-0.5,0-1.6-0.6-1.1c-10.8,7.8-22.3,15.1-31.6,24.7
				C526.8,253.2,527.6,254.1,528.2,253.5L528.2,253.5z"/>
		</g>
	</g>
	<g>
		<g>
			<path class="st7" d="M530.1,262.8c3.8-2.5,7.3-5.5,11.3-7.7c4.3-2.3,8.3-4.5,12.3-7.3c0.7-0.5,0-1.5-0.6-1.1c-4,2.8-8,5-12.3,7.3
				c-4,2.1-7.5,5.1-11.3,7.7C528.8,262.2,529.4,263.2,530.1,262.8L530.1,262.8z"/>
		</g>
	</g>
	<g>
		<g>
			<path class="st7" d="M530.9,272.5c7.1-4.4,14.1-8.9,21-13.7c0.7-0.5,0-1.5-0.6-1.1c-6.9,4.8-13.9,9.3-21,13.7
				C529.6,271.8,530.2,272.9,530.9,272.5L530.9,272.5z"/>
		</g>
	</g>
	<g>
		<g>
			<path class="st7" d="M535.3,280.9c4.2-2.9,8.7-5.1,13.5-6.6c0.8-0.2,0.4-1.5-0.3-1.2c-4.9,1.6-9.5,3.8-13.8,6.7
				C534.1,280.3,534.7,281.4,535.3,280.9L535.3,280.9z"/>
		</g>
	</g>
	<g>
		<g>
			<path class="st7" d="M548.7,170.2c1.1,0.4,2,1.2,2.5,2.4c0.3,0.7,1.4,0.1,1.1-0.6c-0.6-1.4-1.8-2.4-3.3-2.9
				C548.3,168.8,548,170,548.7,170.2L548.7,170.2z"/>
		</g>
	</g>
	<g>
		<g>
			<path class="st7" d="M536.7,171.3c0,1.2,0,2.4,0,3.7c0,0.8,1.2,0.8,1.2,0c0-1.2,0-2.4,0-3.7C538,170.4,536.7,170.4,536.7,171.3
				L536.7,171.3z"/>
		</g>
	</g>
	<g>
		<g>
			<path class="st7" d="M523.3,175c-0.7,0.6-1.3,1.2-2,1.9c-0.6,0.6,0.3,1.4,0.9,0.9c0.7-0.6,1.3-1.2,2-1.9
				C524.8,175.3,523.9,174.5,523.3,175L523.3,175z"/>
		</g>
	</g>
	<g>
		<g>
			<path class="st7" d="M529.8,182.1c-0.2,0.8,0.2,1.5,0.9,2s1.3-0.6,0.6-1.1c-0.2-0.1-0.3-0.4-0.3-0.6
				C531.2,181.7,530,181.3,529.8,182.1L529.8,182.1z"/>
		</g>
	</g>
	<g>
		<g>
			<path class="st7" d="M514,188.7c0.8,0,0.8-1.2,0-1.2C513.2,187.4,513.2,188.7,514,188.7L514,188.7z"/>
		</g>
	</g>
	<g>
		<g>
			<path class="st7" d="M554.1,179.7c1.6,0,3.3,0,4.9,0c0.8,0,0.8-1.2,0-1.2c-1.6,0-3.3,0-4.9,0
				C553.3,178.5,553.3,179.7,554.1,179.7L554.1,179.7z"/>
		</g>
	</g>
	<g>
		<g>
			<path class="st7" d="M508.6,227.7c0,1,0,2,0,3c0,1.6,2.5,1.6,2.5,0c0-1,0-2,0-3C511.1,226.1,508.6,226.1,508.6,227.7L508.6,227.7
				z"/>
		</g>
	</g>
	<g>
		<g>
			<path class="st7" d="M512.7,242.1c0,1.2,0,2.5,0,3.7c0,1.6,2.5,1.6,2.5,0c0-1.2,0-2.5,0-3.7C515.2,240.5,512.7,240.5,512.7,242.1
				L512.7,242.1z"/>
		</g>
	</g>
	<g>
		<g>
			<path class="st7" d="M568.1,223.6c0,1.2,0,2.5,0,3.7c0,1.6,2.5,1.6,2.5,0c0-1.2,0-2.5,0-3.7C570.6,222,568.1,222,568.1,223.6
				L568.1,223.6z"/>
		</g>
	</g>
	<g>
		<g>
			<path class="st7" d="M578.3,213c0.6,0.7,1.2,1.4,1.8,2.1c0.4,0.5,1.3,0.4,1.8,0c0.5-0.5,0.4-1.2,0-1.8c-0.6-0.7-1.2-1.4-1.8-2.1
				c-0.4-0.5-1.3-0.4-1.8,0C577.8,211.7,577.9,212.5,578.3,213L578.3,213z"/>
		</g>
	</g>
</g>
<g>
	<g>
		<g>
			<path class="st7" d="M928.9,215.7c39.8-4.9,80-6.4,120.1-4.4c1.6,0.1,1.6-2.4,0-2.5c-40.1-2-80.3-0.5-120.1,4.4
				C927.3,213.4,927.3,215.9,928.9,215.7L928.9,215.7z"/>
		</g>
	</g>
	<g>
		<g>
			<path class="st7" d="M927,214.4c-1.3,14.3,5.1,28.2,15.9,37.4c11.6,10,27,12.5,41.9,11c27.7-2.8,68.6-15.6,64.9-50.9
				c-0.2-1.6-2.7-1.6-2.5,0c3.5,33.7-35.9,45.7-62.4,48.4c-14.2,1.4-29-0.7-40.1-10.3c-10.3-8.9-16.4-22-15.1-35.7
				C929.7,212.8,927.2,212.8,927,214.4L927,214.4z"/>
		</g>
	</g>
	<g>
		<g>
			<path class="st7" d="M935.3,211.5c-1.3-7.6,0.8-16,6.6-21.4c5.9-5.5,15.1-5.8,22.8-6c8.9-0.2,14.3,3.5,19.9,9.9
				c4.8,5.5,9.9,10.5,15.6,14.9c1.3,1,3-0.8,1.8-1.8c-4-3.1-7.7-6.4-11.2-10c-3.1-3.3-5.9-7-9.2-10.1c-6.6-6-15-5.9-23.4-5.1
				c-7.7,0.7-15.1,2.3-20.1,8.6c-4.8,6.1-6.4,14-5.1,21.5C933.1,213.8,935.5,213.1,935.3,211.5L935.3,211.5z"/>
		</g>
	</g>
	<g>
		<g>
			<path class="st7" d="M941.7,212c-0.4-6.5,0.2-11.5,6.4-14.8c5-2.7,10.3-4.7,16.1-3.9c10.4,1.4,18.3,9.3,24.8,16.9
				c1,1.2,2.8-0.5,1.8-1.8c-7.9-9.3-18.7-19.3-31.9-17.8c-5,0.6-10.8,3-14.9,6c-5.1,3.8-5.2,9.5-4.8,15.3
				C939.3,213.6,941.8,213.6,941.7,212L941.7,212z"/>
		</g>
	</g>
	<g>
		<g>
			<path class="st7" d="M946.9,211.6c4.3-4.4,9.4-10,16.1-9.5c5.6,0.4,10.4,4.5,15,7.4c1.4,0.9,2.6-1.3,1.3-2.2
				c-5.5-3.5-11.4-8.4-18.3-7.8c-6.5,0.6-11.5,5.8-15.8,10.2C944,211,945.8,212.8,946.9,211.6L946.9,211.6z"/>
		</g>
	</g>
	<g>
		<g>
			<path class="st7" d="M957.6,210.6c2.6-0.2,5.2,0,7.9,0.5c1.6,0.3,2.2-2.1,0.7-2.4c-2.8-0.5-5.6-0.7-8.5-0.5
				C956,208.1,955.9,210.6,957.6,210.6L957.6,210.6z"/>
		</g>
	</g>
	<g>
		<g>
			<path class="st7" d="M988.6,193.7c4.3-1.9,7.6-5.3,11.7-7.5c4.8-2.5,10.4-3.2,15.7-2.1c10.3,2.1,21.9,12.6,17.2,23.9
				c-0.6,1.5,1.8,2.1,2.4,0.7c4.6-11.1-4.9-22-14.8-25.8c-5.1-2-10.8-2.3-16.1-1c-6.7,1.7-11.2,6.9-17.4,9.6
				C985.9,192.2,987.2,194.4,988.6,193.7L988.6,193.7z"/>
		</g>
	</g>
	<g>
		<g>
			<path class="st7" d="M991.4,198.9c5.9-0.9,10.7-4.8,16.7-5.9c4-0.8,8.5-1.5,12.2,0.6c4.2,2.3,9,8.4,6.9,13.3
				c-0.6,1.5,1.5,2.7,2.2,1.3c3.1-7.1-3.4-15.7-10.3-17.8c-4.3-1.3-8.9-0.4-13.2,0.5c-5.3,1.2-9.8,4.8-15.1,5.6
				C989.2,196.7,989.9,199.1,991.4,198.9L991.4,198.9z"/>
		</g>
	</g>
	<g>
		<g>
			<path class="st7" d="M995.9,203.6c3.7,0.5,7.1,0.1,10.8-0.6c5.1-1,14.1-3.2,13.2,4.9c-0.2,1.6,2.3,1.6,2.5,0
				c1.7-14.8-18-5.6-25.8-6.7C995,201,994.3,203.4,995.9,203.6L995.9,203.6z"/>
		</g>
	</g>
	<g>
		<g>
			<path class="st7" d="M932,143.6c9.8,12.8,19.5,25.5,29.3,38.3c1,1.3,3.1,0,2.2-1.3c-9.8-12.8-19.5-25.5-29.3-38.3
				C933.2,141.1,931,142.3,932,143.6L932,143.6z"/>
		</g>
	</g>
	<g>
		<g>
			<path class="st7" d="M947.7,129.1c3.5,18,8.3,35.7,14.6,53c0.5,1.5,3,0.9,2.4-0.7c-6.2-17.3-11-35-14.6-53
				C949.8,126.8,947.4,127.5,947.7,129.1L947.7,129.1z"/>
		</g>
	</g>
</g>
<g>
	<g>
		<g>
			<path class="st7" d="M89.5,160.5c-23,9.3-39.1,32.6-39.6,57.5c-0.6,27.7,19.5,49.8,45.1,57.9c17.5,5.6,36.3,4.9,54.2,1.7
				c1.6-0.3,0.9-2.7-0.7-2.4c-33.2,5.9-75.4,0.6-91.4-33.8c-13.7-29.6,3.6-66.6,33.1-78.5C91.7,162.3,91,159.9,89.5,160.5
				L89.5,160.5z"/>
		</g>
	</g>
	<g>
		<g>
			<path class="st7" d="M89.4,161.7c-0.4,2.6,0.4,5.1,2.2,7.1c1.1,1.2,2.9-0.6,1.8-1.8c-1.2-1.2-1.8-2.9-1.6-4.7
				C92,160.8,89.6,160.1,89.4,161.7L89.4,161.7z"/>
		</g>
	</g>
	<g>
		<g>
			<path class="st7" d="M150.5,276.2c-1.3-2.4-2.6-4.8-3.9-7.2c-0.8-1.4-2.9-0.2-2.2,1.3c1.3,2.4,2.6,4.8,3.9,7.2
				C149.1,278.8,151.3,277.6,150.5,276.2L150.5,276.2z"/>
		</g>
	</g>
	<g>
		<g>
			<path class="st7" d="M89.6,168.5c-11.8,9.4-22.5,19.7-27.5,34.4c-4.6,13.2-3.9,27.8,2.3,40.4c15.1,30.6,51.1,30.3,80.4,27.8
				c1.6-0.1,1.6-2.6,0-2.5c-27.9,2.4-62.3,3.4-77.5-25.2c-6.5-12.3-7.2-26.8-2.7-39.9c4.9-14.2,15.5-24.1,26.9-33.3
				C92.7,169.3,90.9,167.5,89.6,168.5L89.6,168.5z"/>
		</g>
	</g>
	<g>
		<g>
			<path class="st7" d="M89.3,162.2c9,21.2,22.8,39.7,33.7,59.8c2.8,5.3,5.5,10.7,7.7,16.3c1,2.5,1.9,5,2.7,7.5
				c0.8,2.4,2.4,5.9,2.1,8.3c-0.4,3-1.9,4.8-0.7,8.1c1.6,4.3,5.9,6.4,9.8,8.2c1.4,0.7,2.7-1.5,1.3-2.2c-2.4-1.1-5.1-2.3-7-4.3
				s-2.4-4.1-1.5-6.6c-0.4,1,1-2,1-2.3c0.4-3.6-2.1-8.8-3.2-12.2c-3.2-9.4-7.7-18.4-12.6-27c-10.4-18.3-22.7-35.5-31-54.9
				C90.8,159.4,88.6,160.7,89.3,162.2L89.3,162.2z"/>
		</g>
	</g>
	<g>
		<g>
			<path class="st7" d="M86.3,193.7c1.2,0,2.4,0,3.7,0c1.6,0,1.6-2.5,0-2.5c-1.2,0-2.4,0-3.7,0C84.7,191.2,84.7,193.7,86.3,193.7
				L86.3,193.7z"/>
		</g>
	</g>
	<g>
		<g>
			<path class="st7" d="M72.7,208.9c1.7,0,3.5,0,5.2,0c1.6,0,1.6-2.5,0-2.5c-1.7,0-3.5,0-5.2,0C71.1,206.4,71.1,208.9,72.7,208.9
				L72.7,208.9z"/>
		</g>
	</g>
	<g>
		<g>
			<path class="st7" d="M72.2,227.2c0.7,0,1.4,0,2.1,0c1.6,0,1.6-2.5,0-2.5c-0.7,0-1.4,0-2.1,0C70.6,224.7,70.6,227.2,72.2,227.2
				L72.2,227.2z"/>
		</g>
	</g>
	<g>
		<g>
			<path class="st7" d="M93.7,217.8c1.4,0,2.8,0,4.2,0c1.6,0,1.6-2.5,0-2.5c-1.4,0-2.8,0-4.2,0C92.1,215.3,92.1,217.8,93.7,217.8
				L93.7,217.8z"/>
		</g>
	</g>
	<g>
		<g>
			<path class="st7" d="M104,238.3c1.4-0.2,2.8-0.4,4.2-0.6c0.7-0.1,1-0.9,0.9-1.5c-0.2-0.7-0.9-1-1.5-0.9c-1.4,0.2-2.8,0.4-4.2,0.6
				c-0.7,0.1-1,0.9-0.9,1.5C102.7,238.1,103.3,238.4,104,238.3L104,238.3z"/>
		</g>
	</g>
	<g>
		<g>
			<path class="st7" d="M87.9,235.1c1,0,2.1,0,3.1,0c1.6,0,1.6-2.5,0-2.5c-1,0-2.1,0-3.1,0C86.3,232.6,86.3,235.1,87.9,235.1
				L87.9,235.1z"/>
		</g>
	</g>
	<g>
		<g>
			<path class="st7" d="M84.8,253c1.5,0,3-0.4,4.3-1.3c1.3-0.9,0.1-3.1-1.3-2.2c-0.9,0.6-1.9,1-3,0.9C83.2,250.5,83.2,253,84.8,253
				L84.8,253z"/>
		</g>
	</g>
	<g>
		<g>
			<path class="st7" d="M108.9,257.1c1.7,0,3.5,0,5.2,0c1.6,0,1.6-2.5,0-2.5c-1.7,0-3.5,0-5.2,0
				C107.3,254.6,107.3,257.1,108.9,257.1L108.9,257.1z"/>
		</g>
	</g>
</g>
<g>
	<g>
		<g>
			<path class="st7" d="M726.9,228.5c3.3,18,7.7,37.2,16.1,53.5c2,3.8,6.5,12.6,12,11.7c5.8-1,8.2-10.8,10-15.2
				c6.7-16.3,12.7-34.3,14.1-51.9c1.1-13.6-5.5-27.8-20.7-28.4c-16.2-0.6-32,13.7-31.5,29.9c0.1,1.6,2.6,1.6,2.5,0
				c-0.3-10.1,4.7-17.1,13.1-22.4c7.4-4.6,16.6-7.2,24.6-2.6c16.8,9.6,8.1,35.4,4.1,49.9c-2.3,8.1-5,16.1-8.2,23.9
				c-1,2.4-2,4.8-3,7.1c-1.5,3.3-1.4,4.1-5.3,5c-1.9,1.3-3.3,1.2-4.2-0.5c-1-1.1-1.9-2.3-2.7-3.5c-1.1-1.6-2-3.3-2.8-5
				c-7.9-16.1-12.2-34.6-15.4-52.2C729,226.2,726.6,226.9,726.9,228.5L726.9,228.5z"/>
		</g>
	</g>
	<g>
		<g>
			<path class="st7" d="M745.7,202.7c-0.4-7.3-6-10.9-12.7-12.2c-4.7-0.9-11.1-1.6-13-6.9c-1.1-3.1-0.3-6.3,1.5-9
				c0.8-1.2,2.1-2.8,3.5-3.6c2.8-1.7,6.4,0.3,8.2,2.6c1.1,1.4,1.6,3.6,3.9,3.4c1.8-0.2,2.6-2,3-3.5c0.8-3.2-0.4-6.8-1.1-9.9
				c-1.6-6.7-0.4-12,6.9-13.8c4.1-1,5.3,2,5.5,5.6c0.1,2.5,0.1,5.1,0,7.6c0,1.7-0.3,5,1.6,6c1.3,0.7,2.5,0.3,3.4-0.7
				c0.8-0.8,1.1-2.3,1.5-3.3c1-2.6,2.1-5.5,4.3-7.4c2.8-2.4,7.2-2.7,9.4,0.9c1.6,2.7,0.7,7.4,0,10.2c-1,3.7-2.3,5.5-6.2,6.6
				c-1.5,0.4-3,0.5-4.5,1.3c-3.9,2-6.2,6.6-0.6,7.4c1.8,0.3,3.7,0.2,5.5,0c0.9-0.1,1.8-0.3,2.6-0.6c0.8-0.2,1.6-0.5,2.3-0.8
				c1.5,0.9,3,1.8,4.5,2.7c1,1.5-2.8,7-4,7.5s-3.7-0.4-4.9-0.7c-2.3-0.6-4.4-1.6-6.7-2.1c-8.3-1.9-11.1,3-10.2,10.7
				c0.2,1.6,2.7,1.6,2.5,0c-0.1-1.1-0.7-3-0.3-4.1c0.8-0.8,1.5-1.5,2.3-2.3c1.1-2.4,2.8-3,5-1.9c2.5,0.6,4.9,1.7,7.5,2.3
				c3.1,0.7,6.9,1.2,9.6-0.9c4.4-3.4,2.4-13.3-3.4-13.9c-2-0.2-3.8,0.9-5.7,1.3c-0.6,0.1-7.2,1.2-7.7,0.1c-0.3-0.9,3.9-3,4.3-3.1
				c3.5-1.1,6.5-0.5,8.7-4c3.3-5.6,4.9-17.4-2.5-20.3c-6.6-2.6-11.6,3.7-13.8,9.2c-0.2,0.5-0.8,3.7-2.1,2.1c-0.3-0.4,0.1-2.5,0.1-3
				c0.1-3.1,0.1-6.4-0.3-9.5c-0.3-2.5-0.8-4.9-3.6-5.6c-6.7-1.7-14.3,4.3-14.5,10.9c-0.1,1.9,0.4,3.8,0.8,5.7
				c0.5,2.1,2.4,6.1,1.4,8.2c-1.9,4.2-2.7-0.4-4-1.8c-1.1-1.2-2.6-2-4.2-2.3c-7.9-1.4-14.4,9.5-12.2,16.3c4.1,12.5,25,4.8,25.8,18.9
				C743.3,204.3,745.8,204.4,745.7,202.7L745.7,202.7z"/>
		</g>
	</g>
	<g>
		<g>
			<path class="st7" d="M747.8,194.1c-1.5-3.7-4.4-6.7-8.4-7.6c-1.6-0.3-2.2,2.1-0.7,2.4c3.1,0.7,5.4,2.9,6.6,5.8
				C746,196.2,748.4,195.5,747.8,194.1L747.8,194.1z"/>
		</g>
	</g>
	<g>
		<g>
			<path class="st7" d="M747.5,193.6c0.5-5.4,0-10.7-1.6-15.9c-0.5-1.5-2.9-0.9-2.4,0.7c1.5,5,2,10,1.5,15.2
				C744.8,195.2,747.3,195.2,747.5,193.6L747.5,193.6z"/>
		</g>
	</g>
	<g>
		<g>
			<path class="st7" d="M748.1,193.8c-1-6.2,0.7-12.7,5.4-17c1.2-1.1-0.6-2.9-1.8-1.8c-5.4,4.9-7.2,12.3-6,19.4
				C746,196,748.4,195.3,748.1,193.8L748.1,193.8z"/>
		</g>
	</g>
	<g>
		<g>
			<path class="st7" d="M747.8,194.4c-0.2-3.8,2.3-6.2,5.5-7.8c1.4-0.7,0.2-2.9-1.3-2.2c-3.9,1.9-6.9,5.4-6.7,10
				C745.4,196,747.9,196,747.8,194.4L747.8,194.4z"/>
		</g>
	</g>
	<g>
		<g>
			<path class="st7" d="M747.2,256c3.9,0.3,7.8-0.1,11.7-1c1.6-0.4,0.9-2.8-0.7-2.4c-3.6,0.9-7.3,1.1-11,0.9
				C745.6,253.4,745.6,255.9,747.2,256L747.2,256z"/>
		</g>
	</g>
	<g>
		<g>
			<path class="st7" d="M747.4,261.9c4.2,0.4,8.1-0.4,11.9-2.2c1.4-0.7,0.2-2.9-1.3-2.2c-3.4,1.6-6.9,2.2-10.6,1.9
				C745.8,259.3,745.9,261.8,747.4,261.9L747.4,261.9z"/>
		</g>
	</g>
	<g>
		<g>
			<path class="st7" d="M749.9,268.6c2.6,0.3,5.1,0.1,7.6-0.7c1.5-0.5,0.9-2.9-0.7-2.4c-2.3,0.7-4.6,0.9-6.9,0.6
				C748.3,265.9,748.4,268.4,749.9,268.6L749.9,268.6z"/>
		</g>
	</g>
</g>
<g>
	<g>
		<g>
			<g>
				<path d="M499.5,71.5c-0.4,27.5-0.3,55,0.3,82.5c0.1,3.2,5.1,3.2,5,0c-0.6-27.5-0.7-55-0.3-82.5
					C504.6,68.3,499.6,68.3,499.5,71.5L499.5,71.5z"/>
			</g>
		</g>
		<g>
			<g>
				<path d="M502.5,70.2c5.5-1.4,11.2-4.2,17-4.3c5.1-0.1,12.4,3,10.6,9.4c-1.8,6.4-9.4,8-15,8.5c-5.8,0.5-11.6,0.7-17.4,1
					c-1.9,0.1-3.1,2-2.2,3.8c11.2,19.9,22.4,39.8,33.6,59.7c1.6,2.8,5.9,0.3,4.3-2.5c-11.2-19.9-22.4-39.8-33.6-59.7
					c-0.7,1.3-1.4,2.5-2.2,3.8c11.4-0.7,38.1,1.2,37.7-16.7c-0.1-6.1-5.3-10.2-10.8-11.7c-8-2.1-15.8,2-23.4,3.9
					C498.1,66.2,499.4,71,502.5,70.2L502.5,70.2z"/>
			</g>
		</g>
	</g>
	<g>
		<g>
			<path d="M717.4,67.9c-0.4,27.5-0.3,55,0.3,82.5c0.1,3.2,5.1,3.2,5,0c-0.6-27.5-0.7-55-0.3-82.5C722.4,64.7,717.4,64.7,717.4,67.9
				L717.4,67.9z"/>
		</g>
	</g>
	<g>
		<g>
			<g>
				<path d="M720.4,66.6c5.5-1.4,11.2-4.2,17-4.3c5.1-0.1,12.4,3,10.6,9.4c-1.8,6.4-9.4,8-15,8.5c-5.8,0.5-11.6,0.7-17.4,1
					c-1.9,0.1-3.1,2-2.2,3.8c11.2,19.9,22.4,39.8,33.6,59.7c1.6,2.8,5.9,0.3,4.3-2.5c-11.2-19.9-22.4-39.8-33.6-59.7
					c-0.7,1.3-1.4,2.5-2.2,3.8c11.4-0.7,38.1,1.2,37.7-16.7c-0.1-6.1-5.3-10.2-10.8-11.7c-8-2.1-15.8,2-23.4,3.9
					C715.9,62.6,717.3,67.4,720.4,66.6L720.4,66.6z"/>
			</g>
		</g>
	</g>
	<g>
		<g>
			<g>
				<path d="M540.7,81.5c-0.3,9.2,0,18.3,1,27.4c0.7,6,0.8,13.7,5,18.4c6.7,7.5,22.2,3.7,24.6-6.1c0.8-3.1-4.1-4.5-4.8-1.3
					c-1.1,4.3-5.7,6.1-9.8,6.2c-6.8,0.1-8.3-5.4-9.1-11c-1.7-11.1-2.2-22.4-1.8-33.6C545.8,78.3,540.8,78.3,540.7,81.5L540.7,81.5z"
					/>
			</g>
		</g>
		<g>
			<g>
				<path d="M544.3,81.8c7.8,0,15.6,0,23.4,0c3.2,0,3.2-5,0-5c-7.8,0-15.6,0-23.4,0C541.1,76.8,541.1,81.8,544.3,81.8L544.3,81.8z"
					/>
			</g>
		</g>
		<g>
			<g>
				<path d="M545.4,100.7c5.9,0,11.9,0,17.8,0c3.2,0,3.2-5,0-5c-5.9,0-11.9,0-17.8,0C542.2,95.7,542.2,100.7,545.4,100.7
					L545.4,100.7z"/>
			</g>
		</g>
	</g>
	<g>
		<g>
			<g>
				<path d="M595.6,74.8c-13.9-3.5-20.1,11.3-20.3,22.5c-0.1,4.7,0.4,10.3,5.4,12.2c6.5,2.5,11.1-3.5,15.7-6.8
					c3.3-2.4,8.1-4.4,12.2-4.2c6,0.3,6.3,5.4,6.7,10.2c0.5,7.4-0.6,14.8-3.4,21.7c-3.2,8.1-8.7,18.1-18.7,16.5
					c-6.6-1.1-13.7-4.5-14.9-11.7c-0.5-3.2-5.3-1.8-4.8,1.3c1.8,11.2,18.2,19.2,28.5,14.7c5.8-2.5,9.8-9.2,12.5-14.5
					c3.3-6.5,5.3-13.6,5.8-20.8c0.4-5.5,0.7-15.1-3-19.7s-12.4-2.7-17.2-1c-3.5,1.3-6.5,3.2-9.2,5.6c-1.4,1.2-2.7,2.7-4.5,3.5
					c-4.4,2.1-6.1-1.7-6.2-5.4c-0.3-8,3-22.1,14-19.3C597.3,80.4,598.7,75.6,595.6,74.8L595.6,74.8z"/>
			</g>
		</g>
	</g>
	<g>
		<g>
			<g>
				<path d="M613.4,71.7c12.6,0,25.3,0,37.9,0c3.2,0,3.2-5,0-5c-12.6,0-25.3,0-37.9,0C610.1,66.7,610.1,71.7,613.4,71.7L613.4,71.7z
					"/>
			</g>
		</g>
		<g>
			<g>
				<path d="M629.1,71.5c-1.2,22.6-2.4,45.3-3.6,67.9c-0.2,3.2,4.8,3.2,5,0c1.2-22.6,2.4-45.3,3.6-67.9
					C634.3,68.3,629.3,68.3,629.1,71.5L629.1,71.5z"/>
			</g>
		</g>
	</g>
	<g>
		<g>
			<g>
				<path d="M816,90.9c12.6,0,25.3,0,37.9,0c3.2,0,3.2-5,0-5c-12.6,0-25.3,0-37.9,0C812.7,85.9,812.7,90.9,816,90.9L816,90.9z"/>
			</g>
		</g>
		<g>
			<g>
				<path d="M831.7,90.6c-1.2,22.6-2.4,45.3-3.6,67.9c-0.2,3.2,4.8,3.2,5,0c1.2-22.6,2.4-45.3,3.6-67.9
					C836.9,87.4,831.9,87.4,831.7,90.6L831.7,90.6z"/>
			</g>
		</g>
	</g>
	<g>
		<g>
			<g>
				<path d="M645.7,138.3c0.8-9.5,1.9-18.9,3.4-28.3c0.7-4.5,1.5-8.9,2.4-13.4c0.4-2.2,0.9-4.4,1.4-6.7c0.2-1.1,0.7-6.2,1.4-6.7
					c-0.3,0.2,3.8,11.6,4,12.3c1.2,4.2,2.3,8.3,3.2,12.6c2,8.8,3.3,17.8,4.2,26.8c0.3,3.2,5.3,3.2,5,0c-1-11.3-2.9-22.5-5.6-33.5
					c-1.5-6-3.3-11.9-5.3-17.7c-0.9-2.5-1.9-5.7-5.2-5.5c-3,0.1-4.6,3.2-5.4,5.7c-1.8,5.8-2.6,12.1-3.7,18.1
					c-2.1,12-3.7,24.1-4.7,36.3C640.4,141.5,645.4,141.5,645.7,138.3L645.7,138.3z"/>
			</g>
		</g>
		<g>
			<g>
				<path d="M643.4,125.2c7.4,0,14.9,0,22.3,0c3.2,0,3.2-5,0-5c-7.4,0-14.9,0-22.3,0C640.2,120.2,640.2,125.2,643.4,125.2
					L643.4,125.2z"/>
			</g>
		</g>
	</g>
	<g>
		<g>
			<g>
				<path d="M757.6,138.3c0.8-9.5,1.9-18.9,3.4-28.3c0.7-4.5,1.5-8.9,2.4-13.4c0.4-2.2,0.9-4.4,1.4-6.7c0.2-1.1,0.7-6.2,1.4-6.7
					c-0.3,0.2,3.8,11.6,4,12.3c1.2,4.2,2.3,8.3,3.2,12.6c2,8.8,3.3,17.8,4.2,26.8c0.3,3.2,5.3,3.2,5,0c-1-11.3-2.9-22.5-5.6-33.5
					c-1.5-6-3.3-11.9-5.3-17.7c-0.9-2.5-1.9-5.7-5.2-5.5c-3,0.1-4.6,3.2-5.4,5.7c-1.8,5.8-2.6,12.1-3.7,18.1
					c-2.1,12-3.7,24.1-4.7,36.3C752.4,141.5,757.4,141.5,757.6,138.3L757.6,138.3z"/>
			</g>
		</g>
		<g>
			<g>
				<path d="M755.4,125.2c7.4,0,14.9,0,22.3,0c3.2,0,3.2-5,0-5c-7.4,0-14.9,0-22.3,0C752.1,120.2,752.1,125.2,755.4,125.2
					L755.4,125.2z"/>
			</g>
		</g>
	</g>
	<g>
		<g>
			<g>
				<path d="M672.5,62.6c-1.1,13.7-0.9,27.5,1,41.2c1.3,9.4,4.9,20.8,16,22.1c10.1,1.1,13.8-8,13.5-16.6
					c-0.5-14.1-1.9-28.2-2.9-42.3c-0.2-3.2-5.2-3.2-5,0c0.7,10.2,1.4,20.4,2.1,30.6c0.5,6.7,4.1,26.5-8.7,22.9
					c-10.1-2.8-10.4-17.7-11.1-26.1c-0.9-10.6-0.8-21.3,0-31.9C677.7,59.4,672.7,59.4,672.5,62.6L672.5,62.6z"/>
			</g>
		</g>
	</g>
	<g>
		<g>
			<g>
				<path d="M791.5,146.1c0-22.6,0-45.2,0-67.8c-1.6,0.2-3.3,0.4-4.9,0.7c6.1,18,12.8,36.7,27.6,49.6c1.9,1.6,4.8,0.1,4.2-2.4
					c-4.8-20.1-6.7-40.7-5.5-61.3c0.2-3.2-4.8-3.2-5,0c-1.2,21.1,0.8,42.1,5.7,62.7c1.4-0.8,2.8-1.6,4.2-2.4
					c-14.1-12.3-20.5-30.1-26.3-47.4c-0.9-2.6-4.9-2.3-4.9,0.7c0,22.6,0,45.2,0,67.8C786.5,149.3,791.5,149.4,791.5,146.1
					L791.5,146.1z"/>
			</g>
		</g>
	</g>
	<g>
		<g>
			<g>
				<path d="M540.9,178.5c-0.4,27.5-0.3,55,0.3,82.5c0.1,3.2,5.1,3.2,5,0c-0.6-27.5-0.7-55-0.3-82.5
					C545.9,175.3,540.9,175.3,540.9,178.5L540.9,178.5z"/>
			</g>
		</g>
		<g>
			<g>
				<path d="M543.9,177.3c5.5-1.4,11.2-4.2,17-4.3c5.1-0.1,12.4,3,10.6,9.4c-1.8,6.4-9.4,8-15,8.5c-5.8,0.5-11.6,0.7-17.4,1
					c-1.9,0.1-3.1,2-2.2,3.8c11.2,19.9,22.4,39.8,33.6,59.7c1.6,2.8,5.9,0.3,4.3-2.5c-11.2-19.9-22.4-39.8-33.6-59.7
					c-0.7,1.3-1.4,2.5-2.2,3.8c11.4-0.7,38.1,1.2,37.7-16.7c-0.1-6.1-5.3-10.2-10.8-11.7c-8-2.1-15.8,2-23.4,3.9
					C539.4,173.2,540.7,178.1,543.9,177.3L543.9,177.3z"/>
			</g>
		</g>
	</g>
	<g>
		<g>
			<g>
				<path d="M585.6,248.6c0.8-9.5,1.9-18.9,3.4-28.3c0.7-4.5,1.5-8.9,2.4-13.4c0.4-2.2,0.9-4.4,1.4-6.7c0.2-1.1,0.7-6.2,1.4-6.7
					c-0.3,0.2,3.8,11.6,4,12.3c1.2,4.2,2.3,8.3,3.2,12.6c2,8.8,3.3,17.8,4.2,26.8c0.3,3.2,5.3,3.2,5,0c-1-11.3-2.9-22.5-5.6-33.5
					c-1.5-6-3.3-11.9-5.3-17.7c-0.9-2.5-1.9-5.7-5.2-5.5c-3,0.1-4.6,3.2-5.4,5.7c-1.8,5.8-2.6,12.1-3.7,18.1
					c-2.1,12-3.7,24.1-4.7,36.3C580.4,251.8,585.4,251.8,585.6,248.6L585.6,248.6z"/>
			</g>
		</g>
		<g>
			<g>
				<path d="M583.4,235.5c7.4,0,14.9,0,22.3,0c3.2,0,3.2-5,0-5c-7.4,0-14.9,0-22.3,0C580.2,230.5,580.1,235.5,583.4,235.5
					L583.4,235.5z"/>
			</g>
		</g>
	</g>
	<g>
		<g>
			<g>
				<path d="M619.7,252.9c0-22.6,0-45.2,0-67.8c-1.6,0.2-3.3,0.4-4.9,0.7c6.1,18,12.8,36.7,27.6,49.6c1.9,1.6,4.8,0.1,4.2-2.4
					c-4.8-20.1-6.7-40.7-5.5-61.3c0.2-3.2-4.8-3.2-5,0c-1.2,21.1,0.8,42.1,5.7,62.7c1.4-0.8,2.8-1.6,4.2-2.4
					c-14.1-12.3-20.5-30.1-26.3-47.4c-0.9-2.6-4.9-2.3-4.9,0.7c0,22.6,0,45.2,0,67.8C614.7,256.1,619.7,256.2,619.7,252.9
					L619.7,252.9z"/>
			</g>
		</g>
	</g>
	<g>
		<g>
			<g>
				<path d="M650.6,185.1c2.1,22.5,4.7,45,7.8,67.4c0.4,3.2,5.3,1.8,4.8-1.3c-3-22-5.6-44-7.6-66.1
					C655.3,181.9,650.3,181.8,650.6,185.1L650.6,185.1z"/>
			</g>
		</g>
		<g>
			<g>
				<path d="M653.8,188.1c14.4,5.7,30.7,13.7,35.8,29.7c0.9,3,1.8,5.4-1,8.3c-1.1,1.1-3.2,1.9-4.6,2.7c-3.3,2-6.4,4.1-9.5,6.4
					c-6.1,4.5-11.8,9.5-17.1,14.9c-2.2,2.3,1.3,5.8,3.5,3.5c7.3-7.4,15.3-14.1,24-19.6c3-1.9,7.6-3.5,9.6-6.6c2-3.2,0.8-7.6-0.2-11
					c-5.6-17.8-23.1-26.8-39.2-33.2C652.1,182.1,650.8,186.9,653.8,188.1L653.8,188.1z"/>
			</g>
		</g>
	</g>
	<g>
		<g>
			<path d="M711.3,183.6c-11.7,8.2-13.5,25.5-11,38.6c2.2,11.6,15.4,29.3,28.9,20.3c10.9-7.3,16.1-22.1,15-34.8
				c-1.1-12.2-9.2-28.8-23.7-27.6c-3.2,0.3-3.2,5.3,0,5c11.8-0.9,18,13.5,18.8,23.3c0.8,10-2.6,20.4-9.8,27.5
				c-11.6,11.4-22.9-5.7-24.5-16.4c-1.5-10.4-0.5-24.9,8.9-31.5C716.4,186.1,713.9,181.7,711.3,183.6L711.3,183.6z"/>
		</g>
	</g>
	<g>
		<g>
			<path d="M758.2,248.5c-0.5-24.4-1.1-48.8-1.6-73.2c-1.6,0.2-3.3,0.4-4.9,0.7c4.9,13.6,12.4,25.9,22.1,36.6c1,1.1,3.3,1,3.9-0.5
				c4-9.5,9.7-17.9,16.9-25.2c-1.4-0.8-2.8-1.6-4.2-2.4c-4.9,19.2-6.5,38.9-4.7,58.6c0.3,3.2,5.3,3.2,5,0
				c-1.7-19.3-0.2-38.5,4.5-57.3c0.6-2.4-2.4-4.2-4.2-2.4c-7.5,7.6-13.4,16.4-17.6,26.2c1.3-0.2,2.6-0.3,3.9-0.5
				c-9.2-10-16.2-21.6-20.9-34.4c-0.9-2.5-5-2.3-4.9,0.7c0.5,24.4,1.1,48.8,1.6,73.2C753.2,251.7,758.2,251.7,758.2,248.5
				L758.2,248.5z"/>
		</g>
	</g>
</g>
<g>
	<g>
		<g>
			<path d="M970.5,584.2c13.7-1.1,27.4-1.4,41.1-0.9c-0.1-0.4-0.1-0.8-0.2-1.2c-0.3,0-0.6,0.1-0.9,0.1c-0.8,0.1-0.5,1.3,0.3,1.2
				c0.3,0,0.6-0.1,0.9-0.1c0.7-0.1,0.5-1.2-0.2-1.2c-13.7-0.5-27.4-0.2-41.1,0.9C969.7,583,969.7,584.3,970.5,584.2L970.5,584.2z"/>
		</g>
	</g>
	<g>
		<g>
			<path d="M969.5,583.5c-1.2,10.4-1.4,20.8-0.6,31.2c0.1,0.8,1.3,0.8,1.2,0c-0.8-10.4-0.6-20.8,0.6-31.2
				C970.8,582.7,969.6,582.7,969.5,583.5L969.5,583.5z"/>
		</g>
	</g>
	<g>
		<g>
			<path d="M1011.2,582.4c1.1,10.3,1.2,20.6,0.5,30.9c-0.1,0.8,1.2,0.8,1.2,0c0.7-10.3,0.6-20.6-0.5-30.9
				C1012.4,581.6,1011.2,581.6,1011.2,582.4L1011.2,582.4z"/>
		</g>
	</g>
	<g>
		<g>
			<path d="M970,615.2c14.5,0.4,28.9-0.1,43.3-1.5c0.8-0.1,0.8-1.3,0-1.2c-14.4,1.4-28.8,1.9-43.3,1.5
				C969.2,613.9,969.2,615.2,970,615.2L970,615.2z"/>
		</g>
	</g>
	<g>
		<g>
			<g>
				<path d="M991.4,596.6c-0.1-0.1-0.1-0.2-0.1-0.3c0,0,0.1-0.2,0.1-0.1c0,0.1-0.2,0-0.2,0l0,0c0-0.1,0.1,0.2,0.1,0.2
					c0,0.3-0.2,0.7-0.3,1c-0.2,0.6,0.3,1.4,0.9,1.5c0.7,0.2,1.3-0.2,1.5-0.9c0.4-0.9,0.6-1.9,0.1-2.8c-0.4-0.8-1.2-1.5-2.2-1.5
					s-1.8,0.6-2.2,1.4c-0.5,0.9-0.4,1.9,0.1,2.8C990,599.3,992.2,598.1,991.4,596.6L991.4,596.6z"/>
			</g>
		</g>
		<g>
			<g>
				<path d="M989.5,597.4c-0.2,1.1-0.5,2.2-0.5,3.4c0,0.7,0.8,1.5,1.6,1.2c1.1-0.4,2.9,0.5,3.5-0.9c0.3-0.7,0-1.2-0.3-1.8
					c-0.2-0.6-0.4-1.2-0.4-1.8c-0.1-0.7-0.9-1-1.5-0.9c-0.7,0.2-1,0.9-0.9,1.5c0.1,1,0.5,1.8,0.8,2.7c0-0.2,0-0.4,0-0.7v0.1
					c0.2-0.2,0.4-0.5,0.6-0.7c0.4-0.2-0.1-0.1-0.3-0.1s-0.5,0-0.7,0c-0.5,0-1,0-1.4,0.2c0.5,0.4,1.1,0.8,1.6,1.2
					c0-0.9,0.2-1.8,0.4-2.7c0.1-0.7-0.2-1.3-0.9-1.5C990.4,596.4,989.6,596.7,989.5,597.4L989.5,597.4z"/>
			</g>
		</g>
		<g>
			<g>
				<path d="M990.4,596.2c0.3,1,1.6,1.7,2.3,0.7c0.8-1.1-0.5-1.8-1.5-1.7s-1.6,1.6-1,2.4c0.1,0.2,0.4,0.3,0.6,0.4
					c0.4,0.1,0.5-0.2,0.1,0.2c-0.5,0.4-0.6,1.4-0.8,2c-0.1,0.5,0.3,0.9,0.8,0.8c0.6-0.2,1.7,0.3,2.2-0.3c0.4-0.5,0.1-1-0.2-1.4
					c-0.4-0.7-0.3-1.3-1-1.9c-0.3-0.3-0.8-0.5-1.2-0.1c-0.2,0.2-0.2,0.4-0.2,0.6c0,0.4-0.1,0.7-0.2,1.1c-0.1,0.6,0,1.1,0.6,1.3
					c1.5,0.5,2.2-1.1,1-2.1c-0.4-0.4-1-0.1-1.1,0.4c0,0.3,0,0.5,0,0.8c0.1,0.8,1.3,0.8,1.2,0c0-0.6,0-1.4,0.2-1.9
					c-0.2,0.1-0.4,0.2-0.5,0.3h0.1c-0.2-0.2-0.4-0.3-0.6-0.5c0.1,0.3,0.2,0.4,0.4,0.6c0.2,0.1,0.5,0.1,0.6,0
					c0.9-0.5,0.6-2.2-0.1-2.7c-0.9-0.8-1.9,0-2.2,1c-0.1,0.3,0.1,0.7,0.4,0.8c0.6,0.1,1.1,0.1,1.7,0.1c0.8,0,0.8-1.3,0-1.2
					c-0.5,0-0.9,0-1.4-0.1c0.1,0.3,0.3,0.5,0.4,0.8c0.2,0.1,0.4,0.2,0.5,0.4c0.2,0,0.4,0,0.6,0c0.1,0.1,0.1,0.1,0.2,0.2
					c-0.1-0.2-0.3-0.5-0.6-0.5c-1.1,0.1-1.1,2-1.1,2.9c0.4,0,0.8,0,1.2,0c0-0.3,0-0.5,0-0.8c-0.4,0.1-0.7,0.3-1.1,0.4
					c0.2,0.1,0.3,0.3,0.2,0.5c0.1-0.2,0.2-0.4,0.3-0.5c-0.1,0.1,0.1-0.7,0.1-0.7c0-0.2,0-0.4,0-0.7c-0.1,0.2-0.2,0.4-0.3,0.5
					c0,0,0.1,0,0.1-0.1c-0.2,0-0.4,0-0.6,0c0.6,0.3,0.4,1.2,0.8,1.6c0.2,0.3,0,0.2,0.3,0.1c0.5-0.1-0.2-0.2-0.3-0.2
					c-0.4,0-0.8,0-1.2,0.1c0.3,0.3,0.5,0.5,0.8,0.8c0.2-0.7,0.4-1.2,0.8-1.9c0.2-0.3,0.3-0.7,0.2-1.1c-0.1-0.3-0.4-0.6-0.7-0.7
					c-0.1,0-0.4-0.1-0.4-0.1c0-0.1,0.1-0.2,0.1-0.3c0.4,0.2,0.5,0,0.3-0.5C991.4,595,990.2,595.4,990.4,596.2L990.4,596.2z"/>
			</g>
		</g>
		<g>
			<g>
				<path d="M989.2,597.6c0.1,0.5,0.5,0.9,0.9,1.2c1.4,0.8,2.7-1.4,1.3-2.2c0.1,0.1,0.1,0.2,0.2,0.3c-0.1-0.7-0.9-1-1.5-0.9
					C989.4,596.2,989,596.9,989.2,597.6L989.2,597.6z"/>
			</g>
		</g>
	</g>
	<g>
		<g>
			<g>
				<path d="M979.1,581.3c0-3.4-0.5-7.3,0-10.7c1.1-7.5,7.3-7,13-7c1.4,0,3-0.3,4.4,0c1.5,0.6,3.1,1.2,4.6,1.9c0.6,1.6,1,3.3,1,5.1
					c0.4,3.4,0.2,6.9,0.1,10.3c0,0.8,1.2,0.8,1.2,0c0.2-4.6,1.3-11.9-1.2-16c-2.2-3.5-7.3-2.5-10.8-2.5c-4,0-9.6-0.2-12.3,3.5
					c-2.7,3.8-1.2,11.2-1.3,15.5C977.9,582.1,979.1,582.1,979.1,581.3L979.1,581.3z"/>
			</g>
		</g>
		<g>
			<g>
				<path d="M981,580.8c-0.2-3.4-1-7.5-0.5-10.9c0.8-5.6,6.6-5.3,10.9-5.4c4.6-0.1,8.2-0.8,9.2,5.2c0.6,3.6-0.1,7.9-0.5,11.4
					c-0.1,0.8,1.1,0.8,1.2,0c0.5-3.5,0.7-7.1,0.6-10.6c-0.1-1.6,0.1-3.6-0.8-5.1c-1.7-3-6.2-2.3-9.1-2.2c-3.6,0.1-8.6-0.4-11.3,2.5
					c-3.3,3.4-1.2,10.8-1,15.1C979.8,581.6,981,581.6,981,580.8L981,580.8z"/>
			</g>
		</g>
	</g>
</g>
</svg>
