<?xml version="1.0" encoding="utf-8"?>
<!-- Generator: Adobe Illustrator 22.1.0, SVG Export Plug-In . SVG Version: 6.00 Build 0)  -->
<svg version="1.1" id="Layer_1" xmlns="http://www.w3.org/2000/svg" xmlns:xlink="http://www.w3.org/1999/xlink" x="0px" y="0px"
	 viewBox="0 0 612 792" style="enable-background:new 0 0 612 792;" xml:space="preserve">
<style type="text/css">
	.st0{fill:#010101;}
</style>
<g>
	<g>
		<g>
			<g>
				<path class="st0" d="M108.3,147.6c-0.4,27.5-0.3,55,0.3,82.5c0.1,3.2,5.1,3.2,5,0c-0.6-27.5-0.7-55-0.3-82.5
					C113.4,144.4,108.4,144.4,108.3,147.6L108.3,147.6z"/>
			</g>
		</g>
		<g>
			<g>
				<path class="st0" d="M111.3,146.4c5.5-1.4,11.2-4.2,17-4.3c5.1-0.1,12.4,3,10.6,9.4c-1.8,6.4-9.4,8-15,8.5
					c-5.8,0.5-11.6,0.7-17.4,1c-1.9,0.1-3.1,2-2.2,3.8c11.2,19.9,22.4,39.8,33.6,59.7c1.6,2.8,5.9,0.3,4.3-2.5
					c-11.2-19.9-22.4-39.8-33.6-59.7c-0.7,1.3-1.4,2.5-2.2,3.8c11.4-0.7,38.1,1.2,37.7-16.7c-0.1-6.1-5.3-10.2-10.8-11.7
					c-8-2.1-15.8,2-23.4,3.9C106.9,142.3,108.2,147.2,111.3,146.4L111.3,146.4z"/>
			</g>
		</g>
	</g>
	<g>
		<g>
			<path class="st0" d="M326.2,144c-0.4,27.5-0.3,55,0.3,82.5c0.1,3.2,5.1,3.2,5,0c-0.6-27.5-0.7-55-0.3-82.5
				C331.2,140.8,326.2,140.8,326.2,144L326.2,144z"/>
		</g>
	</g>
	<g>
		<g>
			<g>
				<path class="st0" d="M329.2,142.8c5.5-1.4,11.2-4.2,17-4.3c5.1-0.1,12.4,3,10.6,9.4c-1.8,6.4-9.4,8-15,8.5
					c-5.8,0.5-11.6,0.7-17.4,1c-1.9,0.1-3.1,2-2.2,3.8c11.2,19.9,22.4,39.8,33.6,59.7c1.6,2.8,5.9,0.3,4.3-2.5
					c-11.2-19.9-22.4-39.8-33.6-59.7c-0.7,1.3-1.4,2.5-2.2,3.8c11.4-0.7,38.1,1.2,37.7-16.7c-0.1-6.1-5.3-10.2-10.8-11.7
					c-8-2.1-15.8,2-23.4,3.9C324.7,138.7,326,143.6,329.2,142.8L329.2,142.8z"/>
			</g>
		</g>
	</g>
	<g>
		<g>
			<g>
				<path class="st0" d="M149.4,157.7c-0.3,9.2,0,18.3,1,27.4c0.7,6,0.8,13.7,5,18.4c6.7,7.5,22.2,3.7,24.6-6.1
					c0.8-3.1-4.1-4.5-4.8-1.3c-1.1,4.3-5.7,6.1-9.8,6.2c-6.8,0.1-8.3-5.4-9.1-11c-1.7-11.1-2.2-22.4-1.8-33.6
					C154.5,154.5,149.5,154.5,149.4,157.7L149.4,157.7z"/>
			</g>
		</g>
		<g>
			<g>
				<path class="st0" d="M153.1,157.9c7.8,0,15.6,0,23.4,0c3.2,0,3.2-5,0-5c-7.8,0-15.6,0-23.4,0
					C149.8,152.9,149.8,157.9,153.1,157.9L153.1,157.9z"/>
			</g>
		</g>
		<g>
			<g>
				<path class="st0" d="M154.2,176.9c5.9,0,11.9,0,17.8,0c3.2,0,3.2-5,0-5c-5.9,0-11.9,0-17.8,0C151,171.9,150.9,176.9,154.2,176.9
					L154.2,176.9z"/>
			</g>
		</g>
	</g>
	<g>
		<g>
			<g>
				<path class="st0" d="M204.3,151c-13.9-3.5-20.1,11.3-20.3,22.5c-0.1,4.7,0.4,10.3,5.4,12.2c6.5,2.5,11.1-3.5,15.7-6.8
					c3.3-2.4,8.1-4.4,12.2-4.2c6,0.3,6.3,5.4,6.7,10.2c0.5,7.4-0.6,14.8-3.4,21.7c-3.2,8.1-8.7,18.1-18.7,16.5
					c-6.6-1.1-13.7-4.5-14.9-11.7c-0.5-3.2-5.3-1.8-4.8,1.3c1.8,11.2,18.2,19.2,28.5,14.7c5.8-2.5,9.8-9.2,12.5-14.5
					c3.3-6.5,5.3-13.6,5.8-20.8c0.4-5.5,0.7-15.1-3-19.7c-3.7-4.6-12.4-2.7-17.2-1c-3.5,1.3-6.5,3.2-9.2,5.6
					c-1.4,1.2-2.7,2.7-4.5,3.5c-4.4,2.1-6.1-1.7-6.2-5.4c-0.3-8,3-22.1,14-19.3C206.1,156.6,207.4,151.8,204.3,151L204.3,151z"/>
			</g>
		</g>
	</g>
	<g>
		<g>
			<g>
				<path class="st0" d="M222.1,147.9c12.6,0,25.3,0,37.9,0c3.2,0,3.2-5,0-5c-12.6,0-25.3,0-37.9,0
					C218.9,142.9,218.9,147.9,222.1,147.9L222.1,147.9z"/>
			</g>
		</g>
		<g>
			<g>
				<path class="st0" d="M237.9,147.7c-1.2,22.6-2.4,45.3-3.6,67.9c-0.2,3.2,4.8,3.2,5,0c1.2-22.6,2.4-45.3,3.6-67.9
					C243,144.4,238,144.5,237.9,147.7L237.9,147.7z"/>
			</g>
		</g>
	</g>
	<g>
		<g>
			<g>
				<path class="st0" d="M424.7,167c12.6,0,25.3,0,37.9,0c3.2,0,3.2-5,0-5c-12.6,0-25.3,0-37.9,0C421.5,162,421.5,167,424.7,167
					L424.7,167z"/>
			</g>
		</g>
		<g>
			<g>
				<path class="st0" d="M440.5,166.8c-1.2,22.6-2.4,45.3-3.6,67.9c-0.2,3.2,4.8,3.2,5,0c1.2-22.6,2.4-45.3,3.6-67.9
					C445.6,163.6,440.6,163.6,440.5,166.8L440.5,166.8z"/>
			</g>
		</g>
	</g>
	<g>
		<g>
			<g>
				<path class="st0" d="M254.5,214.5c0.8-9.5,1.9-18.9,3.4-28.3c0.7-4.5,1.5-8.9,2.4-13.4c0.4-2.2,0.9-4.4,1.4-6.7
					c0.2-1.1,0.7-6.2,1.4-6.7c-0.3,0.2,3.8,11.6,4,12.3c1.2,4.2,2.3,8.3,3.2,12.6c2,8.8,3.3,17.8,4.2,26.8c0.3,3.2,5.3,3.2,5,0
					c-1-11.3-2.9-22.5-5.6-33.5c-1.5-6-3.3-11.9-5.3-17.7c-0.9-2.5-1.9-5.7-5.2-5.5c-3,0.1-4.6,3.2-5.4,5.7
					c-1.8,5.8-2.6,12.1-3.7,18.1c-2.1,12-3.7,24.1-4.7,36.3C249.2,217.7,254.2,217.7,254.5,214.5L254.5,214.5z"/>
			</g>
		</g>
		<g>
			<g>
				<path class="st0" d="M252.2,201.4c7.4,0,14.9,0,22.3,0c3.2,0,3.2-5,0-5c-7.4,0-14.9,0-22.3,0C249,196.4,249,201.4,252.2,201.4
					L252.2,201.4z"/>
			</g>
		</g>
	</g>
	<g>
		<g>
			<g>
				<path class="st0" d="M366.4,214.5c0.8-9.5,1.9-18.9,3.4-28.3c0.7-4.5,1.5-8.9,2.4-13.4c0.4-2.2,0.9-4.4,1.4-6.7
					c0.2-1.1,0.7-6.2,1.4-6.7c-0.3,0.2,3.8,11.6,4,12.3c1.2,4.2,2.3,8.3,3.2,12.6c2,8.8,3.3,17.8,4.2,26.8c0.3,3.2,5.3,3.2,5,0
					c-1-11.3-2.9-22.5-5.6-33.5c-1.5-6-3.3-11.9-5.3-17.7c-0.9-2.5-1.9-5.7-5.2-5.5c-3,0.1-4.6,3.2-5.4,5.7
					c-1.8,5.8-2.6,12.1-3.7,18.1c-2.1,12-3.7,24.1-4.7,36.3C361.1,217.7,366.1,217.7,366.4,214.5L366.4,214.5z"/>
			</g>
		</g>
		<g>
			<g>
				<path class="st0" d="M364.1,201.4c7.4,0,14.9,0,22.3,0c3.2,0,3.2-5,0-5c-7.4,0-14.9,0-22.3,0
					C360.9,196.4,360.9,201.4,364.1,201.4L364.1,201.4z"/>
			</g>
		</g>
	</g>
	<g>
		<g>
			<g>
				<path class="st0" d="M281.2,138.7c-1.1,13.7-0.9,27.5,1,41.2c1.3,9.4,4.9,20.8,16,22.1c10.1,1.1,13.8-8,13.5-16.6
					c-0.5-14.1-1.9-28.2-2.9-42.3c-0.2-3.2-5.2-3.2-5,0c0.7,10.2,1.4,20.4,2.1,30.6c0.5,6.7,4.1,26.5-8.7,22.9
					c-10.1-2.8-10.4-17.7-11.1-26.1c-0.9-10.6-0.8-21.3,0-31.9C286.5,135.5,281.5,135.6,281.2,138.7L281.2,138.7z"/>
			</g>
		</g>
	</g>
	<g>
		<g>
			<g>
				<path class="st0" d="M400.3,222.3c0-22.6,0-45.2,0-67.8c-1.6,0.2-3.3,0.4-4.9,0.7c6.1,18,12.8,36.7,27.6,49.6
					c1.9,1.6,4.8,0.1,4.2-2.4c-4.8-20.1-6.7-40.7-5.5-61.3c0.2-3.2-4.8-3.2-5,0c-1.2,21.1,0.8,42.1,5.7,62.7
					c1.4-0.8,2.8-1.6,4.2-2.4c-14.1-12.3-20.5-30.1-26.3-47.4c-0.9-2.6-4.9-2.3-4.9,0.7c0,22.6,0,45.2,0,67.8
					C395.3,225.5,400.3,225.5,400.3,222.3L400.3,222.3z"/>
			</g>
		</g>
	</g>
	<g>
		<g>
			<g>
				<path class="st0" d="M149.6,254.7c-0.4,27.5-0.3,55,0.3,82.5c0.1,3.2,5.1,3.2,5,0c-0.6-27.5-0.7-55-0.3-82.5
					C154.7,251.5,149.7,251.5,149.6,254.7L149.6,254.7z"/>
			</g>
		</g>
		<g>
			<g>
				<path class="st0" d="M152.6,253.4c5.5-1.4,11.2-4.2,17-4.3c5.1-0.1,12.4,3,10.6,9.4c-1.8,6.4-9.4,8-15,8.5
					c-5.8,0.5-11.6,0.7-17.4,1c-1.9,0.1-3.1,2-2.2,3.8c11.2,19.9,22.4,39.8,33.6,59.7c1.6,2.8,5.9,0.3,4.3-2.5
					c-11.2-19.9-22.4-39.8-33.6-59.7c-0.7,1.3-1.4,2.5-2.2,3.8c11.4-0.7,38.1,1.2,37.7-16.7c-0.1-6.1-5.3-10.2-10.8-11.7
					c-8-2.1-15.8,2-23.4,3.9C148.2,249.4,149.5,254.2,152.6,253.4L152.6,253.4z"/>
			</g>
		</g>
	</g>
	<g>
		<g>
			<g>
				<path class="st0" d="M194.4,324.8c0.8-9.5,1.9-18.9,3.4-28.3c0.7-4.5,1.5-8.9,2.4-13.4c0.4-2.2,0.9-4.4,1.4-6.7
					c0.2-1.1,0.7-6.2,1.4-6.7c-0.3,0.2,3.8,11.6,4,12.3c1.2,4.2,2.3,8.3,3.2,12.6c2,8.8,3.3,17.8,4.2,26.8c0.3,3.2,5.3,3.2,5,0
					c-1-11.3-2.9-22.5-5.6-33.5c-1.5-6-3.3-11.9-5.3-17.7c-0.9-2.5-1.9-5.7-5.2-5.5c-3,0.1-4.6,3.2-5.4,5.7
					c-1.8,5.8-2.6,12.1-3.7,18.1c-2.1,12-3.7,24.1-4.7,36.3C189.1,328,194.1,328,194.4,324.8L194.4,324.8z"/>
			</g>
		</g>
		<g>
			<g>
				<path class="st0" d="M192.1,311.7c7.4,0,14.9,0,22.3,0c3.2,0,3.2-5,0-5c-7.4,0-14.9,0-22.3,0
					C188.9,306.7,188.9,311.7,192.1,311.7L192.1,311.7z"/>
			</g>
		</g>
	</g>
	<g>
		<g>
			<g>
				<path class="st0" d="M228.5,329.1c0-22.6,0-45.2,0-67.8c-1.6,0.2-3.3,0.4-4.9,0.7c6.1,18,12.8,36.7,27.6,49.6
					c1.9,1.6,4.8,0.1,4.2-2.4c-4.8-20.1-6.7-40.7-5.5-61.3c0.2-3.2-4.8-3.2-5,0c-1.2,21.1,0.8,42.1,5.7,62.7
					c1.4-0.8,2.8-1.6,4.2-2.4c-14.1-12.3-20.5-30.1-26.3-47.4c-0.9-2.6-4.9-2.3-4.9,0.7c0,22.6,0,45.2,0,67.8
					C223.5,332.3,228.5,332.3,228.5,329.1L228.5,329.1z"/>
			</g>
		</g>
	</g>
	<g>
		<g>
			<g>
				<path class="st0" d="M259.3,261.2c2.1,22.5,4.7,45,7.8,67.4c0.4,3.2,5.3,1.8,4.8-1.3c-3-22-5.6-44-7.6-66.1
					C264,258,259,258,259.3,261.2L259.3,261.2z"/>
			</g>
		</g>
		<g>
			<g>
				<path class="st0" d="M262.5,264.2c14.4,5.7,30.7,13.7,35.8,29.7c0.9,3,1.8,5.4-1,8.3c-1.1,1.1-3.2,1.9-4.6,2.7
					c-3.3,2-6.4,4.1-9.5,6.4c-6.1,4.5-11.8,9.5-17.1,14.9c-2.2,2.3,1.3,5.8,3.5,3.5c7.3-7.4,15.3-14.1,24-19.6
					c3-1.9,7.6-3.5,9.6-6.6c2-3.2,0.8-7.6-0.2-11c-5.6-17.8-23.1-26.8-39.2-33.2C260.9,258.2,259.6,263.1,262.5,264.2L262.5,264.2z"
					/>
			</g>
		</g>
	</g>
	<g>
		<g>
			<path class="st0" d="M320.1,259.8c-11.7,8.2-13.5,25.5-11,38.6c2.2,11.6,15.4,29.3,28.9,20.3c10.9-7.3,16.1-22.1,15-34.8
				c-1.1-12.2-9.2-28.8-23.7-27.6c-3.2,0.3-3.2,5.3,0,5c11.8-0.9,18,13.5,18.8,23.3c0.8,10-2.6,20.4-9.8,27.5
				c-11.6,11.4-22.9-5.7-24.5-16.4c-1.5-10.4-0.5-24.9,8.9-31.5C325.2,262.2,322.7,257.9,320.1,259.8L320.1,259.8z"/>
		</g>
	</g>
	<g>
		<g>
			<path class="st0" d="M366.9,324.7c-0.5-24.4-1.1-48.8-1.6-73.2c-1.6,0.2-3.3,0.4-4.9,0.7c4.9,13.6,12.4,25.9,22.1,36.6
				c1,1.1,3.3,1,3.9-0.5c4-9.5,9.7-17.9,16.9-25.2c-1.4-0.8-2.8-1.6-4.2-2.4c-4.9,19.2-6.5,38.9-4.7,58.6c0.3,3.2,5.3,3.2,5,0
				c-1.7-19.3-0.2-38.5,4.5-57.3c0.6-2.4-2.4-4.2-4.2-2.4c-7.5,7.6-13.4,16.4-17.6,26.2c1.3-0.2,2.6-0.3,3.9-0.5
				c-9.2-10-16.2-21.6-20.9-34.4c-0.9-2.5-5-2.3-4.9,0.7c0.5,24.4,1.1,48.8,1.6,73.2C362,327.9,367,327.9,366.9,324.7L366.9,324.7z"
				/>
		</g>
	</g>
</g>
</svg>
